HIERARCHY
ROOT Hips
{
  OFFSET 17.3492 39.9336 -5.90442
  CHANNELS 6 Xposition Yposition Zposition Zrotation Xrotation Yrotation
  JOINT LeftHip
  {
    OFFSET 3.43 0 2.22045e-015
    CHANNELS 3 Zrotation Xrotation Yrotation
    JOINT LeftKnee
    {
      OFFSET -8.88178e-014 -18.47 2.13163e-013
      CHANNELS 3 Zrotation Xrotation Yrotation
      JOINT LeftAnkle
      {
        OFFSET -5.03064e-012 -17.95 2.77511e-012
        CHANNELS 3 Zrotation Xrotation Yrotation
        End Site
        {
          OFFSET 0 -3.12 0
        }
      }
    }
  }
  JOINT RightHip
  {
    OFFSET -3.43 0 1.33227e-015
    CHANNELS 3 Zrotation Xrotation Yrotation
    JOINT RightKnee
    {
      OFFSET 7.99361e-014 -18.47 8.9706e-014
      CHANNELS 3 Zrotation Xrotation Yrotation
      JOINT RightAnkle
      {
        OFFSET 3.82805e-012 -17.95 1.49214e-012
        CHANNELS 3 Zrotation Xrotation Yrotation
        End Site
        {
          OFFSET 0 -3.12 0
        }
      }
    }
  }
  JOINT Chest
  {
    OFFSET -4.26326e-014 4.57 2.66454e-015
    CHANNELS 3 Zrotation Xrotation Yrotation
    JOINT Chest2
    {
      OFFSET 0 6.57 4.44089e-016
      CHANNELS 3 Zrotation Xrotation Yrotation
      JOINT LeftCollar
      {
        OFFSET 1.06 4.19 1.76
        CHANNELS 3 Zrotation Xrotation Yrotation
        JOINT LeftShoulder
        {
          OFFSET 5.81 -3.55271e-014 2.22045e-015
          CHANNELS 3 Zrotation Xrotation Yrotation
          JOINT LeftElbow
          {
            OFFSET 1.35003e-013 -12.08 -1.27898e-013
            CHANNELS 3 Zrotation Xrotation Yrotation
            JOINT LeftWrist
            {
              OFFSET 7.95808e-013 -9.82 -4.03233e-013
              CHANNELS 3 Zrotation Xrotation Yrotation
              End Site
              {
                OFFSET 0 -7.37 0
              }
            }
          }
        }
      }
      JOINT RightCollar
      {
        OFFSET -1.06 4.19 1.76
        CHANNELS 3 Zrotation Xrotation Yrotation
        JOINT RightShoulder
        {
          OFFSET -6.06 -2.13163e-014 1.12133e-014
          CHANNELS 3 Zrotation Xrotation Yrotation
          JOINT RightElbow
          {
            OFFSET -1.06581e-013 -11.08 1.33227e-014
            CHANNELS 3 Zrotation Xrotation Yrotation
            JOINT RightWrist
            {
              OFFSET -6.46594e-013 -9.82 -6.27054e-013
              CHANNELS 3 Zrotation Xrotation Yrotation
              End Site
              {
                OFFSET 0 -7.14001 0
              }
            }
          }
        }
      }
      JOINT Neck
      {
        OFFSET -3.55271e-015 4.05 7.99361e-015
        CHANNELS 3 Zrotation Xrotation Yrotation
        JOINT Head
        {
          OFFSET -1.42109e-014 5.19 1.42109e-014
          CHANNELS 3 Zrotation Xrotation Yrotation
          End Site
          {
            OFFSET 0 4.14001 0
          }
        }
      }
    }
  }
}
MOTION
Frames:	7
Frame Time:	0.0333333
-24.7431 39.7188 14.9356 -2.48135 5.73012 3.51344 -1.06672 -13.7608 -1.41732 -1.05963 16.6835 -9.48604 3.25379 -7.91415 0.225138 -0.31341 -12.8491 -5.91793 2.33533 11.9359 -13.0571 0.480596 -6.78654 0.0284962 -8.57293 18.8063 -0.266767 -10.819 26.7497 0.429785 -17.6126 1.04486 -5.22257 39.0127 -42.7346 -2.28455 -0.273568 -65.6644 -0.249261 -2.56918 -5.50897 57.8217 7.11948 0.344972 0.559341 -39.7313 -50.4601 27.7436 -159.149 -63.8608 -161.123 -3.62072 8.38709 45.6833 3.36757 -1.41229 26.4503 -2.64788 -11.2547 26.2772 
-24.732 39.7336 14.8885 -2.7413 6.01141 3.77466 -0.43705 -14.9293 -0.99279 -1.18501 16.8582 -9.14654 3.12641 -7.51959 0.205503 0.373793 -13.4571 -5.10642 2.14832 11.4382 -13.366 0.134255 -6.6267 0.00777246 -8.14375 17.9676 -0.309282 -9.7899 25.3399 0.348794 -17.5899 1.05865 -5.29685 38.376 -42.4178 -3.65634 -1.23356 -64.4156 -1.11264 -2.23208 -6.13719 59.1304 7.35335 0.335926 0.465084 -40.1493 -49.1347 27.9234 -159.602 -63.3186 -161.62 -3.06862 9.42605 46.0517 3.27911 -0.522392 26.7687 -3.22059 -11.2876 26.7126 
-24.6044 39.7314 14.9171 -2.26477 5.49691 3.7714 -1.16648 -14.4123 -1.4408 -1.15668 16.5382 -8.06302 2.56823 -7.36272 0.165269 -0.462625 -13.4326 -5.69397 2.3078 12.2005 -12.7098 0.235551 -6.85562 0.0141091 -7.95731 17.7425 -0.58786 -9.47371 24.852 -0.197258 -17.4247 0.987955 -4.98089 37.9065 -41.7304 -3.89564 -1.38073 -64.3344 -1.24455 -3.93123 -6.32858 60.7307 6.84011 0.347099 0.593147 -38.6606 -48.9349 29.6287 -159.061 -63.7183 -161.064 -3.6694 8.98796 45.7004 2.63584 -0.869618 28.0664 -2.47111 -11.2912 27.695 
-24.5362 39.7355 14.9617 -2.06184 5.25963 3.55607 -1.55235 -13.9119 -1.74596 -1.14894 16.2751 -8.21037 2.40025 -7.28856 0.152896 -0.906986 -13.0938 -6.00639 2.34026 12.0741 -12.0681 0.374583 -6.49512 0.0212544 -7.61298 17.1508 -0.981989 -9.31905 24.0745 -0.78388 -20.7089 0.994002 -4.35396 42.1054 -40.0572 -3.44918 -2.0481 -65.1389 -1.85844 -6.20532 -6.59711 62.9779 7.03369 0.384296 0.93644 -38.105 -48.3337 32.0195 -157.797 -64.0019 -159.854 -4.47783 8.16704 44.6357 1.90071 -0.778877 29.1793 -1.84856 -12.2178 28.5457 
-24.4761 39.7476 14.984 -1.95056 4.77726 3.71493 -1.59508 -13.6395 -1.85195 -0.919501 16.2547 -9.50646 2.82816 -7.69834 0.190323 -1.00037 -12.6967 -6.04735 2.31423 12.0534 -12.0796 0.363092 -6.61594 0.0209865 -7.49425 16.9227 -1.00784 -8.96456 23.62 -0.874957 -19.307 0.918572 -4.26344 40.29 -39.08 -4.26023 -2.22297 -64.9494 -2.01405 -6.29076 -7.41617 63.6227 7.69845 0.392204 0.958118 -39.2285 -47.9479 31.5549 -157.698 -64.1438 -159.741 -3.73451 8.56396 43.2747 1.89637 -0.369707 29.8433 -2.16383 -13.6908 29.3007 
-24.4158 39.7541 15.0149 -1.93414 4.33956 3.84367 -1.75636 -13.334 -1.85692 -1.08308 16.1499 -7.94738 2.32866 -7.5279 0.153219 -1.1898 -12.1025 -6.31118 2.42777 11.6833 -11.9072 0.357988 -6.29187 0.0196758 -7.08814 16.7041 -1.02689 -8.60444 23.1743 -1.0213 -18.4655 0.862484 -4.15109 38.8066 -37.9079 -5.07713 -2.47287 -64.9021 -2.23964 -5.04172 -8.62445 63.0791 7.68465 0.39963 1.02597 -39.2816 -47.3286 31.497 -157.807 -64.2434 -159.826 -2.80477 8.47723 43.1724 1.98811 -0.599561 30.5553 -2.45011 -13.3907 30.0177 
-24.3688 39.7836 15.0466 -1.87854 3.86976 4.12558 -1.66134 -12.8968 -1.65706 -1.18793 15.8031 -7.77838 1.7596 -7.35855 0.113158 -1.1425 -11.3413 -6.27052 2.38796 11.0056 -12.0429 0.274866 -6.10191 0.0146503 -6.79723 16.5009 -1.03254 -8.01623 22.7818 -1.07609 -17.9413 0.833474 -4.10574 37.4905 -36.9115 -5.89461 -2.72869 -64.7565 -2.46845 -4.04834 -9.81225 64.4053 7.36833 0.394929 1.00904 -39.1298 -46.6056 31.9025 -157.7 -64.5162 -159.684 -3.03473 8.17323 43.6455 1.90999 -0.823333 31.1095 -2.69007 -12.9136 30.4725 
